<svg 
 xmlns="http://www.w3.org/2000/svg"
 xmlns:xlink="http://www.w3.org/1999/xlink"
 width="16px" height="16px">
<path fill-rule="evenodd"  fill="rgb(255, 255, 255)"
 d="M8.938,7.995 L15.805,1.128 C16.065,0.868 16.065,0.446 15.805,0.185 C15.544,-0.076 15.121,-0.076 14.861,0.185 L7.995,7.051 L1.128,0.185 C0.868,-0.076 0.445,-0.076 0.185,0.185 C-0.076,0.446 -0.076,0.868 0.185,1.128 L7.051,7.995 L0.185,14.861 C-0.076,15.122 -0.076,15.544 0.185,15.804 C0.315,15.935 0.486,16.000 0.657,16.000 C0.827,16.000 0.998,15.935 1.128,15.804 L7.995,8.938 L14.861,15.804 C14.991,15.935 15.162,16.000 15.333,16.000 C15.504,16.000 15.674,15.935 15.805,15.804 C16.065,15.544 16.065,15.122 15.805,14.861 L8.938,7.995 Z"/>
</svg>