<svg 
 xmlns="http://www.w3.org/2000/svg"
 xmlns:xlink="http://www.w3.org/1999/xlink"
 width="17px" height="17px">
<path fill-rule="evenodd"  fill="rgb(255, 255, 255)"
 d="M0.300,8.152 L4.218,9.831 L5.734,15.431 C5.831,15.790 6.213,15.923 6.466,15.685 L8.649,13.640 C8.878,13.426 9.204,13.415 9.444,13.615 L13.382,16.899 C13.653,17.125 14.037,16.954 14.105,16.578 L16.990,0.639 C17.064,0.228 16.713,-0.115 16.372,0.036 L0.296,7.159 C-0.101,7.335 -0.097,7.980 0.300,8.152 ZM5.489,8.937 L13.145,3.521 C13.283,3.424 13.424,3.638 13.306,3.764 L6.988,10.509 C6.766,10.747 6.623,11.064 6.582,11.409 L6.367,13.241 C6.338,13.486 6.039,13.510 5.980,13.273 L5.153,9.933 C5.058,9.552 5.196,9.145 5.489,8.937 Z"/>
</svg>