<!--?xml version="1.0"?-->
<svg width="25px" height="25px" xmlns="http://www.w3.org/2000/svg" viewBox="0 0 30 30">
    <path fill="rgb(255, 255, 255)" style="line-height:normal;text-indent:0;text-align:start;text-decoration-line:none;text-decoration-style:solid;text-decoration-color:#000;text-transform:none;block-progression:tb;isolation:auto;mix-blend-mode:normal" d="M 6 4 C 4.9069372 4 4 4.9069372 4 6 L 4 24 C 4 25.093063 4.9069372 26 6 26 L 24 26 C 25.093063 26 26 25.093063 26 24 L 26 6 C 26 4.9069372 25.093063 4 24 4 L 6 4 z M 6 6 L 8 6 L 8 8 L 13 8 L 13 6 L 17 6 L 17 8 L 22 8 L 22 6 L 24 6 L 24 15 L 22 15 L 22 17 L 24 17 L 24 24 L 17 24 L 17 21 L 13 21 L 13 24 L 6 24 L 6 17 L 8 17 L 8 15 L 6 15 L 6 6 z M 8 17 L 8 19 L 22 19 L 22 17 L 17 17 L 17 15 L 13 15 L 13 17 L 8 17 z M 9 11 L 9 13 L 13 13 L 13 11 L 9 11 z M 17 11 L 17 13 L 21 13 L 21 11 L 17 11 z"></path>
</svg>