<svg id="svg" version="1.1" width="50" height="50" viewBox="0 0 400 400" xmlns="http://www.w3.org/2000/svg" xmlns:xlink="http://www.w3.org/1999/xlink" ><g id="svgg"><path id="path0" d="M21.200 0.344 C 21.200 0.621,21.010 0.730,20.778 0.586 C 20.111 0.174,16.755 1.305,16.971 1.869 C 17.092 2.184,16.928 2.270,16.514 2.112 C 16.084 1.947,15.965 2.020,16.158 2.332 C 16.344 2.633,16.145 2.800,15.600 2.800 C 15.029 2.800,14.851 2.963,15.053 3.300 C 15.283 3.683,15.218 3.694,14.777 3.349 C 14.078 2.804,12.620 3.259,12.563 4.040 C 12.461 5.433,12.347 5.600,11.500 5.603 C 10.907 5.605,10.259 6.116,9.600 7.102 C 8.449 8.826,6.745 10.636,6.382 10.522 C 4.465 9.922,16.286 22.004,79.841 85.600 L 153.594 159.400 148.170 159.443 C 140.510 159.503,135.713 160.631,128.600 164.047 C 127.060 164.786,125.574 165.606,125.298 165.869 C 125.021 166.132,124.436 166.462,123.998 166.601 C 123.559 166.740,123.200 166.979,123.200 167.133 C 123.200 167.286,122.480 167.856,121.600 168.400 C 120.720 168.944,120.000 169.528,120.000 169.699 C 120.000 169.870,121.125 169.184,122.500 168.176 C 125.099 166.270,132.617 162.400,133.720 162.400 C 134.068 162.400,134.464 162.220,134.600 162.000 C 134.736 161.780,135.341 161.600,135.944 161.600 C 136.547 161.600,137.211 161.438,137.420 161.241 C 138.458 160.260,153.470 159.622,157.200 160.401 C 159.972 160.979,162.368 161.600,163.400 162.007 C 163.840 162.180,165.280 162.738,166.600 163.247 C 171.047 164.961,175.962 168.057,179.877 171.611 C 180.718 172.375,182.755 174.170,184.403 175.600 C 186.052 177.030,188.030 178.783,188.800 179.497 C 189.570 180.210,190.329 180.795,190.486 180.797 C 192.047 180.815,191.434 182.469,189.162 184.368 C 187.824 185.486,186.855 186.400,187.007 186.400 C 187.355 186.400,190.553 183.914,190.733 183.503 C 191.012 182.871,191.974 183.241,192.804 184.300 C 193.278 184.905,194.371 186.154,195.233 187.077 C 196.687 188.632,196.800 188.922,196.800 191.097 C 196.800 194.115,198.642 195.598,200.313 193.927 C 200.574 193.666,200.919 193.586,201.082 193.748 C 201.244 193.911,201.138 194.191,200.845 194.372 C 199.476 195.218,189.600 204.609,189.600 205.064 C 189.600 205.234,190.545 204.461,191.700 203.348 C 193.585 201.530,201.122 194.927,203.550 192.967 C 204.073 192.545,204.883 191.840,205.350 191.399 C 205.818 190.959,207.370 189.609,208.800 188.399 C 210.230 187.190,211.490 186.108,211.600 185.996 C 211.710 185.885,213.240 184.535,215.000 182.996 C 216.760 181.458,218.290 180.105,218.400 179.990 C 218.510 179.874,219.770 178.794,221.199 177.590 C 222.629 176.385,224.070 175.130,224.401 174.800 C 225.088 174.115,228.458 171.095,230.218 169.587 C 233.348 166.905,240.293 163.096,244.000 162.028 C 244.990 161.742,246.160 161.362,246.600 161.182 C 251.015 159.376,262.139 159.158,269.600 160.732 C 278.620 162.633,289.030 168.965,294.055 175.606 C 294.636 176.372,295.580 177.540,296.155 178.200 C 296.729 178.860,297.199 179.625,297.200 179.900 C 297.200 180.175,297.335 180.401,297.500 180.403 C 297.665 180.405,298.001 180.810,298.246 181.303 C 298.491 181.796,299.280 183.370,299.998 184.800 C 303.211 191.191,304.104 195.267,304.120 203.600 C 304.133 210.457,303.864 212.331,302.145 217.367 C 301.626 218.889,301.291 220.224,301.400 220.334 C 301.510 220.444,301.600 220.452,301.600 220.353 C 301.600 220.254,301.985 219.099,302.456 217.786 C 303.500 214.877,303.983 212.886,304.347 210.000 C 304.601 207.991,304.652 208.216,304.942 212.602 C 305.197 216.473,305.124 218.142,304.564 221.202 C 304.182 223.291,303.854 225.480,303.835 226.067 C 303.816 226.653,303.665 227.268,303.500 227.433 C 303.335 227.598,303.200 228.143,303.200 228.643 C 303.200 229.143,303.020 229.664,302.800 229.800 C 302.580 229.936,302.400 230.608,302.400 231.293 C 302.400 232.661,299.248 239.530,298.235 240.371 C 297.886 240.661,297.600 241.112,297.600 241.374 C 297.600 241.636,297.060 242.368,296.400 243.000 C 295.740 243.632,295.200 244.349,295.200 244.594 C 295.200 244.838,294.480 245.741,293.600 246.600 C 292.720 247.459,292.000 248.361,292.000 248.603 C 292.000 249.187,289.493 251.600,288.886 251.600 C 288.624 251.600,288.452 251.994,288.505 252.475 C 288.563 253.009,288.288 253.520,287.800 253.784 C 287.360 254.022,286.280 254.667,285.400 255.217 C 284.520 255.768,283.260 256.477,282.600 256.793 C 280.611 257.745,280.333 258.037,280.839 258.646 C 281.290 259.190,279.958 260.000,278.612 260.000 C 278.317 260.000,277.384 260.341,276.538 260.758 C 275.692 261.174,274.190 261.748,273.200 262.032 C 270.956 262.676,270.981 262.655,271.592 263.390 C 272.018 263.904,271.964 264.000,271.249 264.000 C 270.782 264.000,270.400 264.180,270.400 264.400 C 270.400 264.620,269.421 264.800,268.224 264.800 C 267.027 264.800,265.936 264.980,265.800 265.200 C 265.664 265.420,265.097 265.600,264.539 265.600 C 263.862 265.600,263.456 265.865,263.316 266.400 C 263.189 266.884,262.770 267.200,262.254 267.200 C 261.646 267.200,279.646 285.446,324.800 330.603 C 359.670 365.475,388.413 393.925,388.674 393.825 C 388.935 393.726,389.245 393.860,389.363 394.122 C 389.480 394.385,389.537 394.311,389.488 393.957 C 389.386 393.209,391.810 390.800,392.666 390.800 C 392.986 390.800,393.136 390.620,393.000 390.400 C 392.864 390.180,392.947 390.000,393.185 390.000 C 393.423 390.000,393.822 389.551,394.071 389.003 C 394.409 388.262,394.655 388.114,395.031 388.426 C 395.418 388.747,395.487 388.654,395.323 388.028 C 395.185 387.499,395.338 387.122,395.755 386.962 C 396.110 386.826,396.400 386.376,396.400 385.962 C 396.400 384.904,397.593 383.631,398.359 383.873 C 398.864 384.032,398.885 383.993,398.457 383.688 C 398.117 383.444,398.066 383.207,398.320 383.050 C 398.543 382.912,398.631 382.439,398.516 382.000 C 398.371 381.447,398.504 381.200,398.944 381.200 C 399.748 381.200,399.643 389.454,399.839 310.800 L 400.006 243.400 278.304 121.700 L 156.601 0.000 90.381 0.000 C 37.958 0.000,24.048 0.104,23.621 0.500 C 23.190 0.900,23.139 0.900,23.365 0.500 C 23.540 0.190,23.402 0.000,23.000 0.000 C 22.644 0.000,22.464 0.180,22.600 0.400 C 22.946 0.960,22.260 0.900,21.680 0.320 C 21.307 -0.053,21.200 -0.048,21.200 0.344 M116.173 173.300 C 114.851 174.675,113.428 176.250,113.010 176.800 C 112.592 177.350,112.853 177.170,113.590 176.400 C 114.326 175.630,115.839 174.055,116.951 172.900 C 118.063 171.745,118.884 170.800,118.775 170.800 C 118.666 170.800,117.495 171.925,116.173 173.300 M259.400 188.800 C 259.264 189.020,258.209 189.200,257.056 189.200 C 255.903 189.200,254.789 189.366,254.580 189.568 C 254.371 189.770,253.154 190.206,251.876 190.536 C 248.513 191.405,240.637 196.709,241.062 197.818 C 241.193 198.159,241.050 198.400,240.718 198.400 C 239.851 198.400,237.784 200.760,237.920 201.595 C 237.985 202.001,237.772 202.394,237.446 202.467 C 236.177 202.752,230.868 208.374,231.085 209.204 C 231.219 209.717,231.095 210.000,230.737 210.000 C 229.584 210.000,224.217 215.898,224.767 216.560 C 225.043 216.893,225.153 217.353,225.011 217.582 C 224.497 218.415,225.296 217.966,227.220 216.344 C 229.386 214.518,229.044 214.475,232.000 216.955 C 232.770 217.601,234.814 219.405,236.542 220.965 C 240.656 224.677,243.715 226.954,246.293 228.222 C 255.344 232.675,266.165 232.078,274.400 226.672 C 278.141 224.216,284.800 216.253,284.800 214.235 C 284.800 213.681,284.042 214.062,283.876 214.700 C 283.763 215.131,283.675 214.977,283.646 214.300 C 283.621 213.695,283.780 213.200,284.000 213.200 C 284.452 213.200,284.562 207.495,284.118 207.052 C 283.963 206.897,283.774 206.304,283.698 205.734 C 282.844 199.361,271.692 188.949,265.917 189.132 C 265.102 189.158,264.326 189.004,264.194 188.790 C 263.876 188.276,259.718 188.285,259.400 188.800 M104.649 193.815 C 104.512 194.173,104.415 194.766,104.434 195.133 C 104.453 195.500,104.627 195.269,104.821 194.620 C 105.198 193.358,105.065 192.733,104.649 193.815 M103.731 201.000 C 103.733 202.540,103.805 203.121,103.892 202.291 C 103.979 201.461,103.977 200.201,103.889 199.491 C 103.800 198.781,103.729 199.460,103.731 201.000 M286.537 203.800 C 286.539 205.560,286.609 206.230,286.693 205.289 C 286.778 204.349,286.777 202.909,286.691 202.089 C 286.605 201.270,286.536 202.040,286.537 203.800 M103.724 206.600 C 103.726 207.920,103.801 208.412,103.890 207.693 C 103.979 206.974,103.977 205.894,103.886 205.293 C 103.795 204.692,103.722 205.280,103.724 206.600 M186.591 207.293 C 184.482 209.008,183.874 209.607,184.057 209.790 C 184.140 209.874,185.197 209.059,186.404 207.980 C 188.885 205.763,189.002 205.334,186.591 207.293 M285.867 209.467 C 285.720 209.613,285.611 210.108,285.625 210.567 C 285.649 211.333,285.682 211.323,286.034 210.442 C 286.426 209.463,286.344 208.989,285.867 209.467 M181.600 211.657 C 179.195 213.653,177.145 215.599,177.459 215.587 C 177.819 215.573,183.144 210.827,182.800 210.827 C 182.690 210.827,182.150 211.200,181.600 211.657 M175.383 217.112 C 174.713 217.710,173.381 218.878,172.423 219.707 C 171.464 220.536,170.757 221.290,170.851 221.384 C 170.945 221.478,171.737 220.889,172.611 220.076 C 173.485 219.262,174.881 218.012,175.714 217.298 C 176.547 216.584,177.087 216.005,176.914 216.012 C 176.741 216.018,176.052 216.513,175.383 217.112 M220.997 221.017 C 218.154 223.778,217.491 225.006,220.211 222.476 C 221.085 221.662,222.481 220.412,223.314 219.698 C 224.147 218.984,224.572 218.400,224.260 218.400 C 223.948 218.400,222.480 219.578,220.997 221.017 M127.200 221.050 C 127.200 221.261,128.055 222.236,129.100 223.217 L 131.000 225.000 129.200 223.007 C 128.210 221.912,127.355 220.937,127.300 220.841 C 127.245 220.745,127.200 220.839,127.200 221.050 M168.200 223.442 C 167.540 224.014,166.568 224.827,166.039 225.247 C 165.510 225.667,165.155 226.089,165.250 226.183 C 165.345 226.278,166.407 225.473,167.611 224.395 C 168.815 223.317,169.710 222.427,169.600 222.418 C 169.490 222.409,168.860 222.869,168.200 223.442 M216.480 225.280 C 215.580 226.180,215.796 226.501,218.600 228.444 C 219.332 228.951,219.141 228.675,218.111 227.737 C 216.733 226.484,216.497 226.071,216.831 225.500 C 217.306 224.686,217.163 224.597,216.480 225.280 M163.200 227.200 C 162.650 227.630,162.380 227.982,162.600 227.982 C 162.820 227.982,163.450 227.630,164.000 227.200 C 164.550 226.770,164.820 226.418,164.600 226.418 C 164.380 226.418,163.750 226.770,163.200 227.200 M159.800 228.822 C 158.920 229.238,158.403 229.584,158.651 229.590 C 159.232 229.603,162.000 228.450,162.000 228.195 C 162.000 227.877,161.491 228.022,159.800 228.822 M140.200 230.000 C 140.336 230.220,140.842 230.387,141.324 230.372 C 142.169 230.345,142.171 230.331,141.400 230.000 C 140.299 229.527,139.908 229.527,140.200 230.000 M156.600 230.000 L 155.400 230.305 156.476 230.353 C 157.068 230.379,157.664 230.220,157.800 230.000 C 157.936 229.780,157.992 229.621,157.924 229.647 C 157.856 229.673,157.260 229.832,156.600 230.000 M149.000 230.800 L 143.800 231.037 148.800 231.090 C 151.550 231.120,154.160 230.989,154.600 230.800 C 155.040 230.611,155.130 230.480,154.800 230.510 C 154.470 230.539,151.860 230.670,149.000 230.800 M292.000 234.200 C 291.028 235.190,290.323 236.000,290.433 236.000 C 290.543 236.000,291.428 235.190,292.400 234.200 C 293.372 233.210,294.077 232.400,293.967 232.400 C 293.857 232.400,292.972 233.210,292.000 234.200 M147.100 248.293 C 148.035 248.377,149.565 248.377,150.500 248.293 C 151.435 248.209,150.670 248.140,148.800 248.140 C 146.930 248.140,146.165 248.209,147.100 248.293 " stroke="none" fill="#ec9b54" fill-rule="evenodd"></path><path id="path1" d="M15.839 1.842 C 15.693 2.224,15.341 2.386,14.967 2.243 C 14.622 2.110,14.039 2.307,13.670 2.679 C 13.068 3.287,13.066 3.330,13.651 3.109 C 14.009 2.973,14.531 3.073,14.810 3.331 C 15.201 3.692,15.252 3.685,15.035 3.300 C 14.848 2.969,15.038 2.800,15.600 2.800 C 16.145 2.800,16.344 2.633,16.158 2.332 C 15.965 2.020,16.084 1.947,16.514 2.112 C 16.967 2.286,17.093 2.187,16.937 1.780 C 16.644 1.015,16.146 1.043,15.839 1.842 M11.337 4.181 C 11.485 4.567,11.367 4.685,10.980 4.537 C 10.661 4.414,10.400 4.514,10.400 4.757 C 10.400 5.001,10.175 5.210,9.900 5.222 C 9.625 5.234,8.590 6.145,7.600 7.246 C 6.610 8.348,5.289 9.787,4.665 10.445 C 4.041 11.103,3.625 11.887,3.740 12.188 C 3.855 12.488,3.691 12.833,3.375 12.954 C 3.059 13.076,2.800 13.451,2.800 13.787 C 2.800 14.124,2.649 14.400,2.464 14.400 C 2.279 14.400,1.887 15.165,1.592 16.100 C 1.297 17.035,0.863 18.053,0.628 18.361 C -0.043 19.241,0.029 382.076,0.700 382.300 C 0.975 382.392,1.200 382.705,1.200 382.996 C 1.200 383.637,2.880 386.947,3.300 387.133 C 3.465 387.207,3.600 387.572,3.600 387.945 C 3.600 388.318,3.960 388.883,4.400 389.200 C 4.840 389.517,5.200 389.921,5.200 390.097 C 5.200 390.515,9.485 394.800,9.903 394.800 C 10.079 394.800,10.483 395.160,10.800 395.600 C 11.117 396.040,11.697 396.400,12.088 396.400 C 12.480 396.400,12.800 396.580,12.800 396.800 C 12.800 397.020,13.070 397.200,13.400 397.200 C 13.730 397.200,14.000 397.380,14.000 397.600 C 14.000 397.820,14.349 398.000,14.776 398.000 C 15.203 398.000,15.664 398.180,15.800 398.400 C 15.936 398.620,16.382 398.800,16.790 398.800 C 17.199 398.800,17.608 399.025,17.700 399.300 C 18.004 400.213,381.280 400.013,382.290 399.099 C 382.716 398.714,383.199 398.532,383.362 398.696 C 383.526 398.859,383.826 398.697,384.029 398.334 C 384.258 397.925,384.703 397.754,385.199 397.884 C 385.640 397.999,386.000 397.921,386.000 397.710 C 386.000 397.498,386.810 396.909,387.800 396.400 C 388.790 395.891,389.600 395.323,389.600 395.137 C 389.600 394.952,389.772 394.800,389.982 394.800 C 390.622 394.800,394.800 390.444,394.800 389.776 C 394.800 389.433,394.964 389.254,395.165 389.379 C 395.366 389.503,395.770 389.064,396.063 388.402 C 396.356 387.741,396.731 387.200,396.898 387.200 C 397.064 387.200,397.200 386.945,397.200 386.633 C 397.200 386.322,397.378 386.007,397.597 385.933 C 397.815 385.860,398.034 385.305,398.084 384.700 C 398.134 384.095,398.315 383.600,398.487 383.600 C 398.659 383.600,398.799 383.375,398.798 383.100 C 398.797 382.825,398.257 383.175,397.598 383.878 C 396.939 384.581,396.400 385.507,396.400 385.936 C 396.400 386.364,396.110 386.826,395.755 386.962 C 395.338 387.122,395.185 387.499,395.323 388.028 C 395.487 388.654,395.418 388.747,395.031 388.426 C 394.655 388.114,394.409 388.262,394.071 389.003 C 393.822 389.551,393.423 390.000,393.185 390.000 C 392.947 390.000,392.864 390.180,393.000 390.400 C 393.136 390.620,392.986 390.800,392.666 390.800 C 391.810 390.800,389.386 393.209,389.488 393.957 C 389.537 394.311,389.480 394.385,389.363 394.122 C 389.245 393.860,388.935 393.726,388.674 393.825 C 388.413 393.925,359.670 365.475,324.800 330.603 C 279.646 285.446,261.646 267.200,262.254 267.200 C 262.770 267.200,263.189 266.884,263.316 266.400 C 263.456 265.865,263.862 265.600,264.539 265.600 C 265.097 265.600,265.664 265.420,265.800 265.200 C 265.936 264.980,267.027 264.800,268.224 264.800 C 269.421 264.800,270.400 264.620,270.400 264.400 C 270.400 264.180,270.782 264.000,271.249 264.000 C 271.964 264.000,272.018 263.904,271.592 263.390 C 270.981 262.655,270.956 262.676,273.200 262.032 C 274.190 261.748,275.692 261.174,276.538 260.758 C 277.384 260.341,278.317 260.000,278.612 260.000 C 279.958 260.000,281.290 259.190,280.839 258.646 C 280.333 258.037,280.611 257.745,282.600 256.793 C 283.260 256.477,284.520 255.768,285.400 255.217 C 286.280 254.667,287.360 254.022,287.800 253.784 C 288.288 253.520,288.563 253.009,288.505 252.475 C 288.451 251.977,288.632 251.600,288.926 251.600 C 289.526 251.600,292.000 249.155,292.000 248.562 C 292.000 248.342,292.720 247.459,293.600 246.600 C 294.480 245.741,295.200 244.838,295.200 244.594 C 295.200 244.349,295.740 243.632,296.400 243.000 C 297.060 242.368,297.600 241.636,297.600 241.374 C 297.600 241.112,297.886 240.661,298.235 240.371 C 299.248 239.530,302.400 232.661,302.400 231.293 C 302.400 230.608,302.580 229.936,302.800 229.800 C 303.020 229.664,303.200 229.143,303.200 228.643 C 303.200 228.143,303.335 227.598,303.500 227.433 C 303.665 227.268,303.816 226.653,303.835 226.067 C 303.854 225.480,304.182 223.291,304.564 221.202 C 305.124 218.142,305.197 216.473,304.942 212.602 C 304.652 208.216,304.601 207.991,304.347 210.000 C 303.695 215.170,300.075 224.710,297.634 227.688 C 297.404 227.970,296.161 229.550,294.872 231.200 C 290.254 237.113,278.436 245.600,274.821 245.600 C 274.584 245.600,274.077 245.762,273.695 245.961 C 273.313 246.160,272.280 246.508,271.400 246.736 C 270.520 246.963,268.900 247.384,267.800 247.670 C 265.141 248.363,253.349 248.369,250.400 247.679 C 244.649 246.335,243.587 245.962,238.600 243.541 C 234.981 241.784,230.360 238.713,228.162 236.604 C 226.861 235.357,224.769 233.547,222.704 231.881 C 221.668 231.046,220.590 230.146,220.310 229.881 C 220.029 229.617,218.951 228.770,217.912 228.000 C 216.874 227.230,216.019 226.439,216.012 226.243 C 215.994 225.702,223.621 218.400,224.205 218.400 C 224.947 218.400,225.292 217.192,224.739 216.527 C 224.215 215.895,229.632 210.000,230.737 210.000 C 231.095 210.000,231.219 209.717,231.085 209.204 C 230.868 208.374,236.177 202.752,237.446 202.467 C 237.772 202.394,237.985 202.001,237.920 201.595 C 237.784 200.760,239.851 198.400,240.718 198.400 C 241.050 198.400,241.193 198.159,241.062 197.818 C 240.637 196.709,248.513 191.405,251.876 190.536 C 253.154 190.206,254.371 189.770,254.580 189.568 C 254.789 189.366,255.903 189.200,257.056 189.200 C 258.209 189.200,259.264 189.020,259.400 188.800 C 259.718 188.285,263.876 188.276,264.194 188.790 C 264.326 189.004,265.102 189.158,265.917 189.132 C 271.692 188.949,282.844 199.361,283.698 205.734 C 283.774 206.304,283.963 206.897,284.118 207.052 C 284.562 207.495,284.452 213.200,284.000 213.200 C 283.780 213.200,283.621 213.695,283.646 214.300 C 283.675 214.977,283.763 215.131,283.876 214.700 C 283.976 214.315,284.225 214.000,284.429 214.000 C 284.633 214.000,284.800 213.651,284.800 213.224 C 284.800 212.797,284.980 212.336,285.200 212.200 C 285.420 212.064,285.600 211.434,285.600 210.800 C 285.600 210.166,285.780 209.536,286.000 209.400 C 286.234 209.255,286.400 206.937,286.400 203.800 C 286.400 200.663,286.234 198.345,286.000 198.200 C 285.780 198.064,285.600 197.511,285.600 196.971 C 285.600 196.431,285.440 195.677,285.244 195.295 C 285.048 194.913,284.472 193.700,283.965 192.600 C 282.067 188.484,279.040 184.797,275.600 182.410 C 274.830 181.876,274.110 181.339,274.000 181.217 C 273.546 180.714,268.637 178.400,268.024 178.400 C 267.659 178.400,267.189 178.238,266.980 178.041 C 265.656 176.790,252.344 176.790,251.020 178.041 C 250.811 178.238,250.351 178.400,249.997 178.400 C 249.025 178.400,242.442 181.856,241.600 182.808 C 241.434 182.996,235.527 188.142,231.049 192.000 C 230.411 192.550,229.689 193.183,229.444 193.406 C 229.200 193.629,227.830 194.799,226.400 196.006 C 224.970 197.213,223.710 198.292,223.600 198.404 C 223.490 198.515,221.960 199.865,220.200 201.404 C 218.440 202.942,216.910 204.295,216.800 204.410 C 216.690 204.526,215.430 205.606,214.001 206.810 C 212.571 208.015,211.131 209.272,210.801 209.605 C 210.470 209.937,209.032 211.197,207.604 212.405 C 204.840 214.743,204.657 214.900,198.800 219.988 C 194.541 223.687,191.045 226.715,188.625 228.800 C 187.731 229.570,186.910 230.293,186.800 230.406 C 186.690 230.519,185.340 231.689,183.800 233.006 C 182.260 234.323,180.910 235.490,180.800 235.600 C 177.182 239.218,171.723 242.720,165.800 245.222 C 145.783 253.677,120.198 244.581,109.269 225.124 C 107.052 221.176,106.268 219.229,104.871 214.200 C 102.571 205.924,103.615 193.844,107.247 186.705 C 107.441 186.323,107.600 185.753,107.600 185.439 C 107.600 185.124,107.735 184.807,107.900 184.733 C 108.065 184.660,108.648 183.700,109.195 182.600 C 109.742 181.500,110.288 180.510,110.408 180.400 C 110.529 180.290,111.456 179.030,112.469 177.600 C 114.363 174.928,119.118 170.138,121.600 168.404 C 122.370 167.866,123.238 167.195,123.529 166.913 C 123.819 166.631,124.211 166.400,124.400 166.400 C 124.589 166.400,124.981 166.173,125.271 165.895 C 125.732 165.456,129.869 163.347,132.200 162.365 C 133.451 161.837,137.969 160.538,140.473 159.986 C 141.724 159.711,145.187 159.466,148.170 159.443 L 153.594 159.400 79.841 85.600 C 16.286 22.004,4.465 9.922,6.382 10.522 C 6.745 10.636,8.449 8.826,9.600 7.102 C 10.221 6.173,10.917 5.604,11.436 5.603 C 12.770 5.598,13.406 3.792,12.111 3.684 C 11.388 3.624,11.176 3.760,11.337 4.181 M144.000 177.200 C 143.670 177.413,142.826 177.591,142.124 177.594 C 141.422 177.597,140.736 177.780,140.600 178.000 C 140.464 178.220,140.091 178.400,139.772 178.400 C 136.665 178.400,125.200 187.366,125.200 189.796 C 125.200 189.950,124.871 190.554,124.470 191.138 C 124.068 191.722,123.510 192.830,123.229 193.600 C 122.949 194.370,122.571 195.360,122.390 195.800 C 121.332 198.369,120.852 206.822,121.618 209.400 C 122.882 213.658,123.912 216.000,125.751 218.800 C 127.198 221.002,131.613 225.582,132.300 225.592 C 132.575 225.597,132.800 225.780,132.800 226.000 C 132.800 226.220,133.055 226.400,133.367 226.400 C 133.678 226.400,133.993 226.542,134.067 226.715 C 134.140 226.888,135.232 227.530,136.494 228.141 C 144.669 232.103,156.678 231.649,163.262 227.129 C 163.846 226.728,164.444 226.400,164.590 226.400 C 164.737 226.400,165.092 226.166,165.378 225.879 C 165.665 225.593,166.667 224.738,167.605 223.979 C 168.543 223.221,169.874 222.060,170.562 221.400 C 171.250 220.740,172.976 219.210,174.397 218.000 C 175.818 216.790,177.525 215.284,178.190 214.652 C 178.856 214.021,180.206 212.851,181.191 212.052 C 182.176 211.254,183.558 210.034,184.261 209.343 C 184.965 208.652,186.225 207.572,187.061 206.943 C 187.897 206.314,189.869 204.540,191.444 203.000 C 194.984 199.538,200.132 194.813,200.845 194.372 C 201.138 194.191,201.244 193.911,201.082 193.748 C 200.919 193.586,200.574 193.666,200.313 193.927 C 198.642 195.598,196.800 194.115,196.800 191.097 C 196.800 188.922,196.687 188.632,195.233 187.077 C 194.371 186.154,193.278 184.905,192.804 184.300 C 191.783 182.997,191.496 182.958,190.303 183.956 C 189.806 184.372,187.870 185.938,186.000 187.437 C 184.130 188.937,181.880 190.844,181.000 191.677 C 179.210 193.371,178.589 193.522,177.647 192.493 C 177.291 192.104,176.016 190.979,174.814 189.993 C 173.612 189.007,171.992 187.634,171.214 186.943 C 166.812 183.031,165.423 181.935,163.283 180.680 C 157.898 177.524,146.642 175.493,144.000 177.200 M399.387 378.440 C 399.241 378.902,399.318 379.478,399.560 379.720 C 399.880 380.040,400.000 379.810,400.000 378.880 C 400.000 377.403,399.769 377.237,399.387 378.440 M398.400 381.849 C 398.400 382.380,398.509 382.408,399.000 382.000 C 399.330 381.726,399.600 381.434,399.600 381.351 C 399.600 381.268,399.330 381.200,399.000 381.200 C 398.670 381.200,398.400 381.492,398.400 381.849 " stroke="none" fill="#e38453" fill-rule="evenodd"></path><path id="path2" d="M157.200 0.295 C 157.200 0.694,399.306 242.800,399.706 242.800 C 400.273 242.800,399.867 17.889,399.300 17.700 C 399.025 17.608,398.800 17.188,398.800 16.767 C 398.800 16.345,398.620 16.000,398.400 16.000 C 398.180 16.000,398.000 15.640,398.000 15.200 C 398.000 14.760,397.820 14.400,397.600 14.400 C 397.380 14.400,397.200 14.040,397.200 13.600 C 397.200 13.160,397.020 12.800,396.800 12.800 C 396.580 12.800,396.400 12.517,396.400 12.171 C 396.400 11.426,395.403 10.331,395.048 10.686 C 394.911 10.822,394.800 10.533,394.800 10.043 C 394.800 9.553,394.629 9.258,394.420 9.388 C 394.211 9.517,393.831 9.231,393.574 8.752 C 393.018 7.712,390.562 5.200,390.102 5.200 C 389.923 5.200,389.517 4.840,389.200 4.400 C 388.883 3.960,388.303 3.600,387.912 3.600 C 387.520 3.600,387.200 3.420,387.200 3.200 C 387.200 2.980,386.840 2.800,386.400 2.800 C 385.960 2.800,385.599 2.665,385.597 2.500 C 385.593 2.149,383.663 1.200,382.954 1.200 C 382.686 1.200,382.392 0.975,382.300 0.700 C 382.111 0.132,157.200 -0.273,157.200 0.295 M256.800 159.600 C 255.807 159.809,256.446 159.896,259.000 159.900 C 261.428 159.904,262.209 159.806,261.400 159.600 C 259.907 159.220,258.605 159.220,256.800 159.600 M141.208 160.387 C 140.823 160.630,141.454 160.679,143.008 160.525 C 144.323 160.396,145.475 160.224,145.567 160.145 C 145.951 159.811,141.749 160.044,141.208 160.387 M152.433 160.144 C 152.525 160.223,153.770 160.392,155.200 160.518 C 156.810 160.660,157.495 160.616,157.000 160.402 C 156.242 160.074,152.080 159.839,152.433 160.144 M250.000 160.400 C 249.236 160.893,250.672 160.904,253.000 160.423 L 254.600 160.092 252.600 160.052 C 251.500 160.030,250.330 160.187,250.000 160.400 M265.000 160.423 C 267.328 160.904,268.764 160.893,268.000 160.400 C 267.670 160.187,266.500 160.030,265.400 160.052 L 263.400 160.092 265.000 160.423 M137.390 161.216 C 137.221 161.489,137.523 161.538,138.266 161.360 C 139.799 160.992,139.944 160.800,138.690 160.800 C 138.117 160.800,137.532 160.987,137.390 161.216 M159.200 161.200 C 160.742 161.694,161.564 161.694,160.800 161.200 C 160.470 160.987,159.750 160.827,159.200 160.846 L 158.200 160.880 159.200 161.200 M246.600 161.200 C 246.304 161.680,247.484 161.680,248.600 161.200 C 249.274 160.910,249.200 160.852,248.124 160.828 C 247.422 160.813,246.736 160.980,246.600 161.200 M270.000 161.290 C 288.515 166.684,300.287 179.494,303.554 197.800 L 303.911 199.800 303.954 198.200 C 303.978 197.320,303.547 194.890,302.995 192.800 C 301.878 188.568,301.836 188.455,299.998 184.800 C 299.280 183.370,298.491 181.796,298.246 181.303 C 298.001 180.810,297.665 180.405,297.500 180.403 C 297.335 180.401,297.200 180.175,297.200 179.900 C 297.199 179.625,296.729 178.860,296.155 178.200 C 295.580 177.540,294.636 176.372,294.055 175.606 C 289.106 169.065,275.031 160.596,269.518 160.841 C 268.822 160.872,268.938 160.980,270.000 161.290 M134.600 162.000 C 134.308 162.473,134.699 162.473,135.800 162.000 C 136.571 161.669,136.569 161.655,135.724 161.628 C 135.242 161.613,134.736 161.780,134.600 162.000 M162.200 162.000 C 163.301 162.473,163.692 162.473,163.400 162.000 C 163.264 161.780,162.758 161.613,162.276 161.628 C 161.431 161.655,161.429 161.669,162.200 162.000 M242.800 162.372 C 238.465 164.049,233.072 167.141,230.218 169.587 C 228.458 171.095,225.088 174.115,224.401 174.800 C 224.070 175.130,222.629 176.385,221.199 177.590 C 219.770 178.794,218.510 179.874,218.400 179.990 C 218.290 180.105,216.760 181.458,215.000 182.996 C 213.240 184.535,211.710 185.885,211.600 185.996 C 211.490 186.108,210.230 187.187,208.800 188.394 C 205.643 191.059,205.200 191.475,205.200 191.780 C 205.200 191.991,209.518 188.329,217.200 181.603 C 218.630 180.351,222.320 177.119,225.400 174.422 C 233.204 167.587,238.114 164.446,243.900 162.584 C 245.055 162.212,246.000 161.839,246.000 161.754 C 246.000 161.422,244.514 161.709,242.800 162.372 M167.738 164.047 C 168.584 164.493,169.368 164.765,169.481 164.652 C 169.676 164.457,166.980 163.180,166.451 163.218 C 166.313 163.227,166.892 163.600,167.738 164.047 M127.500 165.026 C 126.455 165.570,125.600 166.105,125.600 166.214 C 125.600 166.393,129.560 164.523,129.967 164.152 C 130.462 163.701,129.161 164.162,127.500 165.026 M170.547 165.286 C 170.958 165.569,172.429 166.520,173.816 167.400 C 176.735 169.252,190.800 181.428,190.800 182.103 C 190.800 182.353,189.945 183.347,188.900 184.313 L 187.000 186.069 189.292 184.193 C 191.427 182.445,192.000 180.815,190.486 180.797 C 190.329 180.795,189.570 180.210,188.800 179.497 C 188.030 178.783,186.052 177.030,184.403 175.600 C 182.755 174.170,180.718 172.375,179.877 171.611 C 177.464 169.421,173.978 166.911,171.800 165.796 C 170.700 165.233,170.136 165.003,170.547 165.286 M120.400 169.752 C 119.190 170.716,117.390 172.377,116.400 173.443 C 115.044 174.904,115.291 174.743,117.400 172.789 C 118.940 171.362,120.830 169.709,121.600 169.116 C 122.370 168.523,122.910 168.029,122.800 168.019 C 122.690 168.009,121.610 168.789,120.400 169.752 M113.144 177.100 C 111.993 178.489,111.506 179.200,111.704 179.200 C 111.814 179.200,112.386 178.570,112.973 177.800 C 114.063 176.371,114.195 175.832,113.144 177.100 M146.500 176.696 C 147.765 176.775,149.835 176.775,151.100 176.696 C 152.365 176.616,151.330 176.551,148.800 176.551 C 146.270 176.551,145.235 176.616,146.500 176.696 M256.915 176.696 C 258.188 176.776,260.168 176.775,261.315 176.694 C 262.462 176.614,261.420 176.549,259.000 176.550 C 256.580 176.551,255.642 176.616,256.915 176.696 M154.600 177.146 C 155.771 177.634,158.326 178.058,157.600 177.644 C 157.270 177.456,156.280 177.192,155.400 177.058 C 154.391 176.903,154.095 176.936,154.600 177.146 M252.600 176.983 C 252.380 177.049,251.390 177.339,250.400 177.628 C 247.189 178.566,240.487 182.388,240.422 183.319 C 240.410 183.494,241.075 183.101,241.900 182.445 C 243.774 180.954,248.085 178.701,250.200 178.107 C 251.080 177.859,252.430 177.483,253.200 177.269 C 253.970 177.056,254.240 176.878,253.800 176.872 C 253.360 176.867,252.820 176.917,252.600 176.983 M264.200 177.200 C 264.640 177.389,265.450 177.538,266.000 177.532 L 267.000 177.520 266.000 177.200 C 265.450 177.024,264.640 176.874,264.200 176.868 L 263.400 176.856 264.200 177.200 M140.400 177.618 C 139.962 177.915,140.124 177.952,141.000 177.756 C 142.471 177.427,142.790 177.198,141.767 177.206 C 141.345 177.209,140.730 177.395,140.400 177.618 M268.000 178.069 C 268.550 178.330,270.164 179.088,271.588 179.755 C 290.234 188.494,291.899 215.357,274.492 226.613 C 273.552 227.220,272.873 227.806,272.981 227.915 C 273.400 228.333,279.294 223.465,280.998 221.295 C 287.047 213.587,288.841 203.197,285.608 194.600 C 282.801 187.136,274.730 179.452,268.000 177.836 L 267.000 177.596 268.000 178.069 M135.900 179.429 C 134.349 180.270,134.525 180.561,136.100 179.759 C 137.608 178.993,137.875 178.794,137.367 178.816 C 137.165 178.825,136.505 179.101,135.900 179.429 M160.433 178.949 C 160.845 179.317,163.200 180.400,163.200 180.221 C 163.200 179.990,160.982 178.800,160.553 178.800 C 160.396 178.800,160.342 178.867,160.433 178.949 M132.584 181.511 C 131.238 182.717,131.581 182.611,133.354 181.272 C 133.989 180.792,134.349 180.405,134.154 180.411 C 133.959 180.417,133.253 180.912,132.584 181.511 M109.814 181.835 C 109.441 182.404,109.205 182.938,109.289 183.022 C 109.373 183.107,109.758 182.641,110.144 181.988 C 111.006 180.528,110.748 180.409,109.814 181.835 M166.000 182.096 C 166.000 182.179,167.035 183.124,168.300 184.195 C 169.777 185.446,170.171 185.675,169.400 184.835 C 168.262 183.595,166.000 181.773,166.000 182.096 M128.378 185.100 L 127.000 186.600 128.500 185.222 C 129.325 184.463,130.000 183.788,130.000 183.722 C 130.000 183.416,129.662 183.704,128.378 185.100 M235.000 187.885 C 232.360 190.187,229.660 192.552,229.000 193.140 C 228.340 193.729,225.280 196.393,222.200 199.062 C 219.120 201.730,215.610 204.849,214.400 205.993 C 212.242 208.032,212.239 208.040,214.200 206.386 C 216.195 204.703,230.201 192.581,231.044 191.808 C 231.289 191.583,232.013 190.950,232.653 190.400 C 233.294 189.850,235.164 188.237,236.809 186.816 C 238.454 185.394,239.875 184.179,239.967 184.116 C 240.058 184.052,240.058 183.932,239.967 183.850 C 239.875 183.767,237.640 185.583,235.000 187.885 M171.400 186.762 C 172.281 187.783,176.000 190.973,176.000 190.708 C 176.000 190.617,174.785 189.483,173.300 188.189 C 171.815 186.895,170.960 186.253,171.400 186.762 M185.195 187.332 C 180.305 191.752,179.443 192.556,179.989 192.180 C 180.325 191.948,181.950 190.605,183.600 189.195 C 185.250 187.785,186.675 186.579,186.767 186.516 C 186.858 186.452,186.858 186.324,186.765 186.232 C 186.673 186.140,185.966 186.635,185.195 187.332 M125.693 188.300 C 124.657 189.796,124.321 190.400,124.523 190.400 C 124.617 190.400,125.170 189.680,125.753 188.800 C 126.936 187.012,126.884 186.579,125.693 188.300 M176.433 191.300 C 176.525 191.355,177.140 191.850,177.800 192.400 L 179.000 193.400 178.030 192.300 C 177.497 191.695,176.882 191.200,176.664 191.200 C 176.445 191.200,176.342 191.245,176.433 191.300 M202.580 193.734 C 201.491 194.687,198.372 197.432,195.649 199.834 C 192.926 202.235,189.741 205.010,188.572 206.000 C 187.403 206.990,186.436 207.957,186.423 208.149 C 186.410 208.341,187.885 207.159,189.700 205.523 C 191.515 203.887,195.340 200.513,198.200 198.027 C 203.995 192.989,205.073 192.000,204.769 192.000 C 204.655 192.000,203.670 192.780,202.580 193.734 M121.429 197.429 C 121.281 198.015,121.238 198.572,121.332 198.666 C 121.427 198.760,121.624 198.358,121.771 197.771 C 121.919 197.185,121.962 196.628,121.868 196.534 C 121.773 196.440,121.576 196.842,121.429 197.429 M120.946 203.800 C 120.947 206.000,121.014 206.849,121.095 205.687 C 121.176 204.524,121.176 202.724,121.093 201.687 C 121.011 200.649,120.945 201.600,120.946 203.800 M304.124 203.800 C 304.126 205.120,304.201 205.612,304.290 204.893 C 304.379 204.174,304.377 203.094,304.286 202.493 C 304.195 201.892,304.122 202.480,304.124 203.800 M208.201 211.268 C 203.610 215.297,202.479 216.519,206.400 213.215 C 211.099 209.255,212.095 208.360,211.942 208.230 C 211.864 208.164,210.181 209.531,208.201 211.268 M183.600 210.397 C 182.390 211.486,180.464 213.147,179.319 214.088 C 178.175 215.030,177.230 215.948,177.219 216.129 C 177.200 216.455,185.430 209.398,185.837 208.741 C 186.235 208.097,185.795 208.422,183.600 210.397 M303.467 210.347 C 303.298 211.527,303.247 212.581,303.354 212.688 C 303.649 212.982,304.090 210.236,303.922 209.152 C 303.832 208.570,303.655 209.034,303.467 210.347 M302.622 214.329 C 302.458 215.059,302.422 215.756,302.542 215.876 C 302.843 216.177,303.320 214.156,303.099 213.517 C 303.001 213.233,302.786 213.598,302.622 214.329 M226.921 216.510 C 225.777 217.440,224.832 218.345,224.821 218.522 C 224.809 218.699,225.814 218.018,227.053 217.008 C 229.509 215.008,229.228 215.007,231.440 217.024 C 235.374 220.611,242.425 226.411,243.721 227.127 C 244.656 227.643,244.963 227.731,244.414 227.327 C 240.715 224.599,239.305 223.456,236.449 220.869 C 228.914 214.043,229.581 214.348,226.921 216.510 M201.775 216.900 L 200.600 218.200 201.900 217.025 C 203.112 215.930,203.384 215.600,203.075 215.600 C 203.006 215.600,202.421 216.185,201.775 216.900 M173.807 218.912 C 172.271 220.281,170.201 222.184,169.207 223.141 C 168.213 224.099,169.423 223.140,171.896 221.010 C 175.865 217.590,177.146 216.370,176.724 216.412 C 176.656 216.419,175.343 217.544,173.807 218.912 M301.800 217.200 C 301.650 217.673,301.617 218.150,301.727 218.260 C 301.837 218.370,302.050 218.073,302.200 217.600 C 302.350 217.127,302.383 216.650,302.273 216.540 C 302.163 216.430,301.950 216.727,301.800 217.200 M125.043 218.727 C 125.459 219.457,126.148 220.357,126.574 220.727 C 127.024 221.118,126.866 220.731,126.196 219.800 C 124.593 217.574,124.150 217.161,125.043 218.727 M197.600 220.471 C 195.569 222.373,195.438 222.554,197.000 221.298 C 198.866 219.796,200.730 217.978,200.362 218.017 C 200.273 218.027,199.030 219.131,197.600 220.471 M222.785 220.121 C 222.020 220.825,220.630 222.075,219.696 222.900 C 218.762 223.725,218.109 224.400,218.246 224.400 C 218.695 224.400,224.535 219.202,224.324 218.990 C 224.242 218.909,223.550 219.418,222.785 220.121 M300.209 221.483 C 297.711 227.218,292.671 233.640,286.800 238.572 C 285.483 239.679,285.376 239.833,286.400 239.149 C 289.116 237.334,294.361 231.913,296.545 228.664 C 298.717 225.434,301.866 219.333,301.534 219.000 C 301.441 218.907,300.845 220.025,300.209 221.483 M128.200 222.747 C 128.860 223.477,130.120 224.628,131.000 225.306 C 132.874 226.748,132.271 226.100,129.200 223.373 C 127.923 222.239,127.503 221.976,128.200 222.747 M192.378 225.100 L 191.000 226.600 192.500 225.222 C 193.896 223.938,194.184 223.600,193.878 223.600 C 193.812 223.600,193.137 224.275,192.378 225.100 M216.832 225.540 C 216.415 226.320,216.485 226.391,223.600 232.336 C 226.566 234.815,224.848 233.117,220.283 229.059 C 217.272 226.382,216.685 225.474,217.700 225.065 C 218.077 224.913,218.080 224.855,217.714 224.832 C 217.447 224.814,217.050 225.133,216.832 225.540 M109.949 226.200 C 110.165 226.640,110.634 227.360,110.993 227.800 L 111.644 228.600 111.251 227.800 C 111.035 227.360,110.566 226.640,110.207 226.200 L 109.556 225.400 109.949 226.200 M134.000 227.390 C 134.000 227.624,136.239 228.801,136.680 228.799 C 136.856 228.798,136.411 228.438,135.690 227.999 C 134.351 227.182,134.000 227.056,134.000 227.390 M186.200 230.310 C 185.320 231.130,183.992 232.302,183.250 232.916 C 182.507 233.530,181.967 234.097,182.050 234.176 C 182.132 234.255,183.600 233.077,185.311 231.560 C 187.022 230.042,188.282 228.805,188.111 228.810 C 187.940 228.816,187.080 229.491,186.200 230.310 M249.600 230.000 C 249.930 230.213,250.470 230.388,250.800 230.388 C 251.333 230.388,251.333 230.345,250.800 230.000 C 250.470 229.787,249.930 229.612,249.600 229.612 C 249.067 229.612,249.067 229.655,249.600 230.000 M267.200 230.000 C 266.667 230.345,266.667 230.388,267.200 230.388 C 267.530 230.388,268.070 230.213,268.400 230.000 C 268.933 229.655,268.933 229.612,268.400 229.612 C 268.070 229.612,267.530 229.787,267.200 230.000 M142.200 230.800 C 142.640 230.989,143.270 231.144,143.600 231.144 C 143.978 231.144,143.904 231.017,143.400 230.800 C 142.960 230.611,142.330 230.456,142.000 230.456 C 141.622 230.456,141.696 230.583,142.200 230.800 M154.600 230.800 C 154.096 231.017,154.022 231.144,154.400 231.144 C 154.730 231.144,155.360 230.989,155.800 230.800 C 156.304 230.583,156.378 230.456,156.000 230.456 C 155.670 230.456,155.040 230.611,154.600 230.800 M252.200 230.800 C 252.640 230.989,253.450 231.138,254.000 231.132 L 255.000 231.120 254.000 230.800 C 253.450 230.624,252.640 230.474,252.200 230.468 L 251.400 230.456 252.200 230.800 M264.000 230.800 L 263.000 231.120 264.000 231.132 C 264.550 231.138,265.360 230.989,265.800 230.800 L 266.600 230.456 265.800 230.468 C 265.360 230.474,264.550 230.624,264.000 230.800 M147.312 231.495 C 148.364 231.577,149.984 231.576,150.912 231.492 C 151.840 231.408,150.980 231.341,149.000 231.342 C 147.020 231.343,146.260 231.412,147.312 231.495 M257.500 231.493 C 258.435 231.577,259.965 231.577,260.900 231.493 C 261.835 231.409,261.070 231.340,259.200 231.340 C 257.330 231.340,256.565 231.409,257.500 231.493 M116.600 234.800 C 117.683 235.900,118.660 236.800,118.770 236.800 C 118.880 236.800,118.083 235.900,117.000 234.800 C 115.917 233.700,114.940 232.800,114.830 232.800 C 114.720 232.800,115.517 233.700,116.600 234.800 M179.781 236.100 L 178.200 237.800 179.900 236.219 C 181.481 234.748,181.784 234.400,181.481 234.400 C 181.416 234.400,180.651 235.165,179.781 236.100 M226.434 234.700 C 226.452 234.865,227.217 235.622,228.134 236.382 L 229.800 237.763 228.219 236.082 C 226.593 234.352,226.376 234.184,226.434 234.700 M122.494 239.690 C 123.682 240.700,126.000 242.147,126.000 241.879 C 126.000 241.788,124.965 241.049,123.700 240.237 C 122.435 239.425,121.892 239.179,122.494 239.690 M282.200 241.600 C 281.540 242.037,281.180 242.392,281.400 242.388 C 281.801 242.382,283.976 240.823,283.600 240.812 C 283.490 240.808,282.860 241.163,282.200 241.600 M235.600 241.798 C 235.600 242.067,239.649 244.084,239.829 243.905 C 239.911 243.823,238.993 243.273,237.789 242.682 C 236.585 242.092,235.600 241.694,235.600 241.798 M279.200 243.200 C 278.430 243.622,277.944 243.974,278.120 243.983 C 278.544 244.005,280.800 242.832,280.800 242.590 C 280.800 242.328,280.777 242.337,279.200 243.200 M240.400 244.200 C 240.400 244.406,242.487 245.325,244.035 245.802 C 244.566 245.966,244.910 246.002,244.800 245.883 C 244.493 245.551,240.400 243.986,240.400 244.200 M275.600 244.800 C 274.610 245.215,274.003 245.565,274.251 245.578 C 274.818 245.606,277.600 244.457,277.600 244.195 C 277.600 243.948,277.712 243.914,275.600 244.800 M271.656 246.059 C 270.917 246.272,270.387 246.520,270.479 246.612 C 270.681 246.814,273.600 246.037,273.600 245.781 C 273.600 245.546,273.282 245.591,271.656 246.059 M245.233 246.144 C 245.325 246.223,245.940 246.408,246.600 246.556 C 247.476 246.752,247.638 246.715,247.200 246.418 C 246.660 246.053,244.832 245.798,245.233 246.144 M139.600 247.200 C 140.968 247.638,142.019 247.638,141.000 247.200 C 140.560 247.011,139.840 246.862,139.400 246.868 C 138.757 246.877,138.796 246.943,139.600 247.200 M249.200 247.200 C 249.750 247.376,250.650 247.517,251.200 247.513 C 252.098 247.506,252.078 247.474,251.000 247.200 C 249.308 246.769,247.856 246.769,249.200 247.200 M267.200 247.200 C 266.408 247.454,266.367 247.520,267.000 247.520 C 267.440 247.520,268.250 247.376,268.800 247.200 C 269.592 246.946,269.633 246.880,269.000 246.880 C 268.560 246.880,267.750 247.024,267.200 247.200 M144.300 247.882 C 144.795 247.978,145.605 247.978,146.100 247.882 C 146.595 247.787,146.190 247.709,145.200 247.709 C 144.210 247.709,143.805 247.787,144.300 247.882 M151.900 247.882 C 152.395 247.978,153.205 247.978,153.700 247.882 C 154.195 247.787,153.790 247.709,152.800 247.709 C 151.810 247.709,151.405 247.787,151.900 247.882 M255.716 248.128 C 257.430 248.312,260.400 248.310,262.316 248.123 C 265.518 247.811,265.265 247.784,259.200 247.789 C 253.431 247.794,252.992 247.836,255.716 248.128 " stroke="none" fill="#ecb154" fill-rule="evenodd"></path><path id="path3" d="M143.000 160.430 C 106.533 165.459,91.238 208.657,116.800 234.428 C 123.362 241.045,130.378 244.784,140.800 247.219 C 143.606 247.875,154.273 247.895,157.200 247.250 C 167.120 245.063,173.258 241.868,181.228 234.742 C 182.862 233.281,188.610 228.262,194.000 223.590 C 199.390 218.918,207.120 212.193,211.179 208.647 C 215.237 205.101,220.097 200.875,221.979 199.256 C 223.860 197.637,226.030 195.745,226.800 195.053 C 227.570 194.361,230.900 191.459,234.200 188.605 C 237.500 185.751,240.713 182.944,241.340 182.369 C 241.967 181.793,243.947 180.590,245.740 179.694 C 273.057 166.042,299.716 197.446,281.025 221.259 C 272.005 232.752,253.515 234.924,241.800 225.867 C 240.463 224.833,231.842 217.463,231.200 216.805 C 229.533 215.096,227.367 215.856,224.400 219.191 C 224.290 219.314,222.854 220.582,221.210 222.008 C 217.217 225.469,217.200 225.486,217.200 225.930 C 217.200 226.570,229.927 237.752,233.200 239.988 C 253.782 254.051,282.576 248.691,296.381 228.228 C 320.102 193.065,284.556 148.690,243.800 162.587 C 236.749 164.991,232.156 168.243,218.400 180.568 C 217.630 181.258,211.960 186.174,205.800 191.492 C 199.640 196.810,188.128 206.828,180.219 213.755 C 161.274 230.346,159.414 231.394,149.000 231.361 C 115.504 231.253,110.231 185.002,142.800 176.971 C 152.853 174.492,160.988 177.394,172.702 187.638 C 175.946 190.475,178.721 192.752,178.868 192.698 C 179.641 192.415,190.795 182.529,190.797 182.125 C 190.801 181.545,177.253 169.647,174.408 167.731 C 165.716 161.877,153.351 159.003,143.000 160.430 " stroke="none" fill="#fbfafa" fill-rule="evenodd"></path></g></svg>