<svg 
 xmlns="http://www.w3.org/2000/svg"
 xmlns:xlink="http://www.w3.org/1999/xlink"
 width="17px" height="17px">
<path fill-rule="evenodd"  fill="rgb(255, 255, 255)"
 d="M15.878,7.050 C15.862,7.050 15.849,7.048 15.833,7.048 L14.321,13.331 L8.502,13.331 L2.680,13.331 L1.169,7.048 C1.153,7.050 1.139,7.050 1.124,7.050 C0.498,7.050 -0.010,6.467 -0.010,5.748 C-0.010,5.029 0.498,4.446 1.125,4.446 C1.751,4.446 2.259,5.029 2.259,5.748 C2.259,5.887 2.238,6.023 2.204,6.148 L4.938,7.984 L7.876,2.389 C7.569,2.157 7.368,1.758 7.368,1.304 C7.368,0.586 7.876,0.002 8.502,0.002 C9.128,0.002 9.635,0.586 9.635,1.304 C9.635,1.756 9.433,2.157 9.128,2.389 L12.066,7.984 L14.800,6.148 C14.763,6.023 14.744,5.887 14.744,5.748 C14.744,5.029 15.252,4.446 15.878,4.446 C16.504,4.446 17.012,5.029 17.012,5.748 C17.012,6.467 16.504,7.050 15.878,7.050 ZM3.039,14.818 L13.963,14.818 C14.490,14.818 14.916,15.308 14.916,15.913 C14.916,16.516 14.490,17.008 13.963,17.008 L3.039,17.008 C2.512,17.008 2.086,16.518 2.086,15.913 C2.086,15.308 2.512,14.818 3.039,14.818 Z"/>
</svg>