<svg 
 xmlns="http://www.w3.org/2000/svg"
 xmlns:xlink="http://www.w3.org/1999/xlink"
 width="17px" height="17px">
<path fill-rule="evenodd"  fill="rgb(255, 255, 255)"
 d="M14.732,4.004 L15.327,4.004 L15.327,3.004 L14.494,3.004 L14.494,2.161 L14.007,2.161 L13.994,2.128 L13.981,2.161 L13.494,2.161 L13.494,3.004 L9.910,3.004 C9.761,2.574 9.421,2.232 8.991,2.080 L8.991,0.995 L9.959,0.995 L9.959,-0.004 L7.024,-0.004 L7.024,0.995 L7.991,0.995 L7.991,2.080 C7.565,2.231 7.228,2.568 7.077,2.993 L3.489,2.993 L3.489,2.161 L3.002,2.161 L2.989,2.128 L2.976,2.161 L2.489,2.161 L2.489,2.993 L1.589,2.993 L1.589,3.992 L2.255,3.992 L-0.013,9.750 L-0.013,9.845 C-0.013,11.498 1.334,12.842 2.989,12.842 C4.644,12.842 5.990,11.498 5.990,9.845 L5.990,9.750 L3.723,3.992 L7.077,3.992 C7.228,4.418 7.565,4.755 7.991,4.906 L7.991,14.004 L3.789,14.004 L3.789,16.003 L2.756,16.003 L2.756,17.002 L3.789,17.002 L13.193,17.002 L14.227,17.002 L14.227,16.003 L13.193,16.003 L13.193,14.004 L8.992,14.004 L8.992,4.906 C9.413,4.756 9.749,4.424 9.902,4.004 L13.255,4.004 L10.992,9.750 L10.992,9.845 C10.992,11.498 12.339,12.843 13.994,12.843 C15.649,12.843 16.995,11.498 16.995,9.845 L16.995,9.750 L14.732,4.004 ZM4.756,9.345 L1.222,9.345 L2.989,4.858 L4.756,9.345 ZM12.227,9.345 L13.994,4.858 L15.761,9.345 L12.227,9.345 Z"/>
</svg>