<svg version="1.0" xmlns="http://www.w3.org/2000/svg"
 width="42.000000pt" height="41.000000pt" viewBox="0 0 42.000000 41.000000">
<g transform="translate(0.000000,41.000000) scale(0.100000,-0.100000)"
fill="#f29911" stroke="none">
<path d="M125 386 c-95 -42 -140 -166 -96 -261 36 -77 95 -115 181 -115 86 0
145 38 181 115 45 98 -6 227 -104 264 -39 15 -126 13 -162 -3z m129 -7 c55
-15 93 -46 116 -94 25 -53 25 -107 0 -160 -64 -133 -256 -133 -320 0 -50 102
3 222 111 253 46 14 48 14 93 1z"/>
<path d="M200 229 c0 -44 4 -68 10 -64 6 3 10 35 10 71 0 36 -4 64 -10 64 -6
0 -10 -30 -10 -71z"/>
<path d="M200 120 c0 -5 5 -10 10 -10 6 0 10 5 10 10 0 6 -4 10 -10 10 -5 0
-10 -4 -10 -10z"/>
</g>
</svg>